<svg width="24" height="23" viewBox="0 0 24 23" fill="none" xmlns="http://www.w3.org/2000/svg">
<path d="M21.2 22.3458L13.7333 15.1125C13.0667 15.6292 12.3 16.0382 11.4333 16.3396C10.5667 16.641 9.64445 16.7917 8.66667 16.7917C6.24445 16.7917 4.19467 15.9792 2.51733 14.3543C0.839111 12.7285 0 10.7424 0 8.39583C0 6.04931 0.839111 4.06315 2.51733 2.43738C4.19467 0.812459 6.24445 0 8.66667 0C11.0889 0 13.1391 0.812459 14.8173 2.43738C16.4947 4.06315 17.3333 6.04931 17.3333 8.39583C17.3333 9.34306 17.1778 10.2365 16.8667 11.076C16.5556 11.9156 16.1333 12.6583 15.6 13.3042L23.1 20.5698C23.3444 20.8066 23.4667 21.0972 23.4667 21.4417C23.4667 21.7861 23.3333 22.0875 23.0667 22.3458C22.8222 22.5826 22.5111 22.701 22.1333 22.701C21.7556 22.701 21.4444 22.5826 21.2 22.3458ZM8.66667 14.2083C10.3333 14.2083 11.7502 13.6434 12.9173 12.5137C14.0836 11.383 14.6667 10.0104 14.6667 8.39583C14.6667 6.78125 14.0836 5.40864 12.9173 4.278C11.7502 3.14822 10.3333 2.58333 8.66667 2.58333C7 2.58333 5.58311 3.14822 4.416 4.278C3.24978 5.40864 2.66667 6.78125 2.66667 8.39583C2.66667 10.0104 3.24978 11.383 4.416 12.5137C5.58311 13.6434 7 14.2083 8.66667 14.2083Z" fill="black"/>
</svg>
