<svg width="21" height="21" viewBox="0 0 21 21" fill="none" xmlns="http://www.w3.org/2000/svg">
<path d="M19.7437 6.92333L13.8954 6.41583L11.6117 1.03875C11.2008 0.06 9.79916 0.06 9.38833 1.03875L7.10458 6.42792L1.26833 6.92333C0.204996 7.00792 -0.230004 8.33708 0.579579 9.03792L5.01416 12.8804L3.685 18.5838C3.44333 19.6229 4.56708 20.4446 5.48541 19.8888L10.5 16.8679L15.5146 19.9008C16.4329 20.4567 17.5567 19.635 17.315 18.5958L15.9858 12.8804L20.4204 9.03792C21.23 8.33708 20.8071 7.00792 19.7437 6.92333ZM10.5 14.6083L5.95666 17.3513L7.165 12.1796L3.15333 8.69958L8.44583 8.24042L10.5 3.37083L12.5662 8.2525L17.8587 8.71167L13.8471 12.1917L15.0554 17.3633L10.5 14.6083Z" fill="white"/>
</svg>
